<svg xmlns="http://www.w3.org/2000/svg" width="16" height="16" id="coin"><path fill="none" stroke="#000" stroke-linecap="round" stroke-linejoin="round" stroke-miterlimit="34.178" d="M15.5 8.5c0 3.863-3.149 7-7.02 7-3.874 0-6.98-3.137-6.98-7s3.106-7 6.98-7c3.871 0 7.02 3.137 7.02 7h0z"></path><path style="line-height:normal;text-indent:0;text-align:start;text-decoration-line:none;text-decoration-style:solid;text-decoration-color:#000;text-transform:none;block-progression:tb;white-space:normal;isolation:auto;mix-blend-mode:normal;solid-color:#000;solid-opacity:1" fill-rule="evenodd" d="m202.925 1136.362-.425 1h4.575l.425-1h-4.575z" color="#000" font-family="sans-serif" font-weight="400" overflow="visible" transform="translate(-198 -1129.362)"></path><path fill="none" stroke="#000" stroke-linecap="square" d="M10.295 11.954a2.707 4.004 0 0 1-3.427-.894 2.707 4.004 0 0 1 0-5.147 2.707 4.004 0 0 1 3.427-.894"></path><path style="line-height:normal;text-indent:0;text-align:start;text-decoration-line:none;text-decoration-style:solid;text-decoration-color:#000;text-transform:none;block-progression:tb;white-space:normal;isolation:auto;mix-blend-mode:normal;solid-color:#000;solid-opacity:1" fill-rule="evenodd" d="m202.825 1138.362-.425 1h4.575l.425-1h-4.575z" color="#000" font-family="sans-serif" font-weight="400" overflow="visible" transform="translate(-198 -1129.362)"></path></svg>